<svg xmlns="http://www.w3.org/2000/svg" viewBox="0 0 100 100">
  <defs>
    <linearGradient id="bodyGrad" x1="0%" y1="0%" x2="100%" y2="100%">
      <stop offset="0%" style="stop-color:#60a5fa"/>
      <stop offset="100%" style="stop-color:#3b82f6"/>
    </linearGradient>
    <linearGradient id="flameGrad" x1="0%" y1="0%" x2="0%" y2="100%">
      <stop offset="0%" style="stop-color:#fbbf24"/>
      <stop offset="50%" style="stop-color:#f97316"/>
      <stop offset="100%" style="stop-color:#ef4444"/>
    </linearGradient>
  </defs>
  <path d="M50 10 C55 10 58 15 58 25 L58 50 C65 55 70 65 68 78 L50 95 L32 78 C30 65 35 55 42 50 L42 25 C42 15 45 10 50 10Z" fill="url(#bodyGrad)"/>
  <ellipse cx="50" cy="38" rx="5" ry="6" fill="#1e3a5f"/>
  <path d="M42 50 C38 52 32 58 34 68 L42 65Z" fill="#2563eb"/>
  <path d="M58 50 C62 52 68 58 66 68 L58 65Z" fill="#2563eb"/>
  <path d="M44 78 C47 82 50 88 50 92 C50 88 53 82 56 78 L50 95Z" fill="url(#flameGrad)"/>
  <path d="M48 78 C50 82 50 86 50 90 C50 86 50 82 52 78Z" fill="#fbbf24"/>
</svg>